<svg width="181" height="19" viewBox="0 0 181 19" fill="none" xmlns="http://www.w3.org/2000/svg">
<path d="M14.5938 2.97656H9.35547V18H5.95703V2.97656H0.730469V1.19531H14.5938V2.97656ZM15.6719 1.19531H26.2188V2.97656H19.0703V8.47266H25.6211V10.2422H19.0703V16.2188H26.3477V18H15.6719V1.19531ZM31.5039 6.73828L30.3555 4.58203H31.5742L31.8203 7.04297V18H28.5391V0.9375H30.8711L39.0977 12.4102L40.2109 14.4492H39.0039L38.7344 12.1055V1.19531H42.0156V18.2695H39.6836L31.5039 6.73828ZM52.2695 13.7227C52.2695 12.918 52.0703 12.3047 51.6719 11.8828C51.2812 11.4609 50.8086 11.1016 50.2539 10.8047C49.6992 10.5 49.0625 10.2031 48.3438 9.91406C47.6328 9.61719 46.9492 9.25 46.293 8.8125C45.6445 8.36719 45.125 7.85547 44.7344 7.27734C44.3516 6.69141 44.1602 5.99219 44.1602 5.17969C44.1602 4.00781 44.6562 3.00391 45.6484 2.16797C46.6406 1.33203 48.1328 0.914062 50.125 0.914062C51.1797 0.914062 52.1523 0.996094 53.043 1.16016C53.9414 1.31641 54.6836 1.53906 55.2695 1.82812L54.5781 3.84375C53.5625 3.34375 52.7461 3.02734 52.1289 2.89453C51.5195 2.75391 50.8164 2.68359 50.0195 2.68359C49.2773 2.68359 48.6797 2.88672 48.2266 3.29297C47.7812 3.69141 47.5586 4.28125 47.5586 5.0625C47.5586 5.82031 47.7539 6.40625 48.1445 6.82031C48.543 7.23438 49.0195 7.59375 49.5742 7.89844C50.1367 8.20312 50.7773 8.51953 51.4961 8.84766C52.2148 9.17578 52.8984 9.56641 53.5469 10.0195C54.1953 10.4727 54.7109 10.9844 55.0938 11.5547C55.4766 12.125 55.668 12.793 55.668 13.5586C55.668 14.1836 55.5469 14.7656 55.3047 15.3047C55.0703 15.8438 54.6797 16.3438 54.1328 16.8047C53.5859 17.2656 52.8945 17.6289 52.0586 17.8945C51.2227 18.1602 50.2891 18.293 49.2578 18.293C47.9453 18.293 46.8477 18.1875 45.9648 17.9766C45.0898 17.7656 44.3828 17.5273 43.8438 17.2617L44.6523 15.1172C45.6758 15.7031 46.4922 16.082 47.1016 16.2539C47.7188 16.4258 48.4141 16.5117 49.1875 16.5117C49.6094 16.5117 49.9922 16.4727 50.3359 16.3945C50.6797 16.3164 50.9805 16.1875 51.2383 16.0078C51.4961 15.8281 51.7305 15.5508 51.9414 15.1758C52.1602 14.8008 52.2695 14.3164 52.2695 13.7227ZM56.7461 9.59766C56.7461 6.92578 57.3633 4.8125 58.5977 3.25781C59.832 1.69531 61.7266 0.914062 64.2812 0.914062C65.6719 0.914062 66.8633 1.15625 67.8555 1.64062C68.8555 2.11719 69.6445 2.74219 70.2227 3.51562C70.8086 4.28906 71.2305 5.18359 71.4883 6.19922C71.7461 7.20703 71.875 8.33984 71.875 9.59766C71.875 12.2773 71.2539 14.3984 70.0117 15.9609C68.7695 17.5156 66.8594 18.293 64.2812 18.293C62.9141 18.293 61.7344 18.0508 60.7422 17.5664C59.75 17.082 58.9648 16.457 58.3867 15.6914C57.8086 14.918 57.3906 14.0234 57.1328 13.0078C56.875 11.9922 56.7461 10.8555 56.7461 9.59766ZM60.2617 9.59766C60.2617 10.5742 60.3594 11.5039 60.5547 12.3867C60.75 13.2695 61.0391 14.0312 61.4219 14.6719C61.8047 15.3047 62.2344 15.7695 62.7109 16.0664C63.1953 16.3633 63.7188 16.5117 64.2812 16.5117C65.3984 16.5117 66.3555 15.9805 67.1523 14.918C67.957 13.8477 68.3594 12.0742 68.3594 9.59766C68.3594 8.63672 68.2617 7.71094 68.0664 6.82031C67.8711 5.92969 67.5742 5.16797 67.1758 4.53516C66.7852 3.90234 66.3516 3.4375 65.875 3.14062C65.3984 2.83594 64.8672 2.68359 64.2812 2.68359C63.1875 2.68359 62.2422 3.21875 61.4453 4.28906C60.6562 5.35156 60.2617 7.12109 60.2617 9.59766ZM73.7383 1.73438C74.6523 1.50781 75.4414 1.37109 76.1055 1.32422C76.7773 1.26953 77.4062 1.24219 77.9922 1.24219C78.9375 1.24219 79.8438 1.33984 80.7109 1.53516C81.5781 1.72266 82.3398 2 82.9961 2.36719C83.6523 2.72656 84.1367 3.23828 84.4492 3.90234C84.7695 4.55859 84.9297 5.28906 84.9297 6.09375C84.9297 6.71875 84.8359 7.28125 84.6484 7.78125C84.4688 8.28125 84.1875 8.72656 83.8047 9.11719C83.4297 9.5 82.957 9.84766 82.3867 10.1602C81.8242 10.4648 81.2148 10.6875 80.5586 10.8281L82.4336 12.1523L86.0312 18H82.4805L78.2383 10.9688L77.1367 10.7344V18H73.7383V1.73438ZM78.0859 2.84766C77.7422 2.84766 77.4727 2.85938 77.2773 2.88281C77.082 2.90625 77.0352 2.90625 77.1367 2.88281V9.41016H78.0625C78.5078 9.41016 78.9102 9.36328 79.2695 9.26953C79.6367 9.16797 79.9688 9.00391 80.2656 8.77734C80.5703 8.55078 80.8359 8.22656 81.0625 7.80469C81.2969 7.375 81.4141 6.80469 81.4141 6.09375C81.4141 5.41406 81.293 4.84375 81.0508 4.38281C80.8164 3.92188 80.5508 3.58984 80.2539 3.38672C79.957 3.18359 79.6289 3.04297 79.2695 2.96484C78.9102 2.88672 78.5156 2.84766 78.0859 2.84766ZM101.676 13.7227C101.676 12.918 101.477 12.3047 101.078 11.8828C100.688 11.4609 100.215 11.1016 99.6602 10.8047C99.1055 10.5 98.4688 10.2031 97.75 9.91406C97.0391 9.61719 96.3555 9.25 95.6992 8.8125C95.0508 8.36719 94.5312 7.85547 94.1406 7.27734C93.7578 6.69141 93.5664 5.99219 93.5664 5.17969C93.5664 4.00781 94.0625 3.00391 95.0547 2.16797C96.0469 1.33203 97.5391 0.914062 99.5312 0.914062C100.586 0.914062 101.559 0.996094 102.449 1.16016C103.348 1.31641 104.09 1.53906 104.676 1.82812L103.984 3.84375C102.969 3.34375 102.152 3.02734 101.535 2.89453C100.926 2.75391 100.223 2.68359 99.4258 2.68359C98.6836 2.68359 98.0859 2.88672 97.6328 3.29297C97.1875 3.69141 96.9648 4.28125 96.9648 5.0625C96.9648 5.82031 97.1602 6.40625 97.5508 6.82031C97.9492 7.23438 98.4258 7.59375 98.9805 7.89844C99.543 8.20312 100.184 8.51953 100.902 8.84766C101.621 9.17578 102.305 9.56641 102.953 10.0195C103.602 10.4727 104.117 10.9844 104.5 11.5547C104.883 12.125 105.074 12.793 105.074 13.5586C105.074 14.1836 104.953 14.7656 104.711 15.3047C104.477 15.8438 104.086 16.3438 103.539 16.8047C102.992 17.2656 102.301 17.6289 101.465 17.8945C100.629 18.1602 99.6953 18.293 98.6641 18.293C97.3516 18.293 96.2539 18.1875 95.3711 17.9766C94.4961 17.7656 93.7891 17.5273 93.25 17.2617L94.0586 15.1172C95.082 15.7031 95.8984 16.082 96.5078 16.2539C97.125 16.4258 97.8203 16.5117 98.5938 16.5117C99.0156 16.5117 99.3984 16.4727 99.7422 16.3945C100.086 16.3164 100.387 16.1875 100.645 16.0078C100.902 15.8281 101.137 15.5508 101.348 15.1758C101.566 14.8008 101.676 14.3164 101.676 13.7227ZM118.926 17.1562C118.379 17.5703 117.672 17.8633 116.805 18.0352C115.945 18.207 115.051 18.293 114.121 18.293C112.941 18.293 111.844 18.0938 110.828 17.6953C109.812 17.2969 108.961 16.7305 108.273 15.9961C107.594 15.2539 107.07 14.3594 106.703 13.3125C106.336 12.2656 106.152 11.0273 106.152 9.59766C106.152 8.10547 106.355 6.83594 106.762 5.78906C107.168 4.74219 107.734 3.85547 108.461 3.12891C109.195 2.39453 110.062 1.84375 111.062 1.47656C112.062 1.10156 113.09 0.914062 114.145 0.914062C115.184 0.914062 116.051 0.972656 116.746 1.08984C117.441 1.20703 118.09 1.39063 118.691 1.64062L118.141 3.65625C116.797 3.00781 115.516 2.68359 114.297 2.68359C113.805 2.68359 113.305 2.78125 112.797 2.97656C112.297 3.16406 111.809 3.51172 111.332 4.01953C110.863 4.52734 110.469 5.24609 110.148 6.17578C109.828 7.09766 109.668 8.23828 109.668 9.59766C109.668 10.8242 109.82 11.8945 110.125 12.8086C110.43 13.7227 110.82 14.4531 111.297 15C111.781 15.5469 112.293 15.9375 112.832 16.1719C113.379 16.3984 113.961 16.5117 114.578 16.5117C115.172 16.5117 115.684 16.457 116.113 16.3477C116.543 16.2305 117.281 15.8477 118.328 15.1992L118.926 17.1562ZM130.609 10.3008H123.953V18H120.555V1.19531H123.953V8.51953H130.609V1.19531H134.008V18H130.609V10.3008ZM135.988 9.59766C135.988 6.92578 136.605 4.8125 137.84 3.25781C139.074 1.69531 140.969 0.914062 143.523 0.914062C144.914 0.914062 146.105 1.15625 147.098 1.64062C148.098 2.11719 148.887 2.74219 149.465 3.51562C150.051 4.28906 150.473 5.18359 150.73 6.19922C150.988 7.20703 151.117 8.33984 151.117 9.59766C151.117 12.2773 150.496 14.3984 149.254 15.9609C148.012 17.5156 146.102 18.293 143.523 18.293C142.156 18.293 140.977 18.0508 139.984 17.5664C138.992 17.082 138.207 16.457 137.629 15.6914C137.051 14.918 136.633 14.0234 136.375 13.0078C136.117 11.9922 135.988 10.8555 135.988 9.59766ZM139.504 9.59766C139.504 10.5742 139.602 11.5039 139.797 12.3867C139.992 13.2695 140.281 14.0312 140.664 14.6719C141.047 15.3047 141.477 15.7695 141.953 16.0664C142.438 16.3633 142.961 16.5117 143.523 16.5117C144.641 16.5117 145.598 15.9805 146.395 14.918C147.199 13.8477 147.602 12.0742 147.602 9.59766C147.602 8.63672 147.504 7.71094 147.309 6.82031C147.113 5.92969 146.816 5.16797 146.418 4.53516C146.027 3.90234 145.594 3.4375 145.117 3.14062C144.641 2.83594 144.109 2.68359 143.523 2.68359C142.43 2.68359 141.484 3.21875 140.688 4.28906C139.898 5.35156 139.504 7.12109 139.504 9.59766ZM152.418 9.59766C152.418 6.92578 153.035 4.8125 154.27 3.25781C155.504 1.69531 157.398 0.914062 159.953 0.914062C161.344 0.914062 162.535 1.15625 163.527 1.64062C164.527 2.11719 165.316 2.74219 165.895 3.51562C166.48 4.28906 166.902 5.18359 167.16 6.19922C167.418 7.20703 167.547 8.33984 167.547 9.59766C167.547 12.2773 166.926 14.3984 165.684 15.9609C164.441 17.5156 162.531 18.293 159.953 18.293C158.586 18.293 157.406 18.0508 156.414 17.5664C155.422 17.082 154.637 16.457 154.059 15.6914C153.48 14.918 153.062 14.0234 152.805 13.0078C152.547 11.9922 152.418 10.8555 152.418 9.59766ZM155.934 9.59766C155.934 10.5742 156.031 11.5039 156.227 12.3867C156.422 13.2695 156.711 14.0312 157.094 14.6719C157.477 15.3047 157.906 15.7695 158.383 16.0664C158.867 16.3633 159.391 16.5117 159.953 16.5117C161.07 16.5117 162.027 15.9805 162.824 14.918C163.629 13.8477 164.031 12.0742 164.031 9.59766C164.031 8.63672 163.934 7.71094 163.738 6.82031C163.543 5.92969 163.246 5.16797 162.848 4.53516C162.457 3.90234 162.023 3.4375 161.547 3.14062C161.07 2.83594 160.539 2.68359 159.953 2.68359C158.859 2.68359 157.914 3.21875 157.117 4.28906C156.328 5.35156 155.934 7.12109 155.934 9.59766ZM180.883 18H169.539V1.19531H172.938V16.2188H180.883V18Z" fill="#333333"/>
</svg>
